<svg width="90" height="38" viewBox="0 0 90 38" fill="none" xmlns="http://www.w3.org/2000/svg">
<rect x="0.233994" y="0.90332" width="89.5484" height="36.4899" rx="2.78428" fill="#4CAF4F"/>
<path d="M23.8251 22.6482V14.5485H26.7122C27.3397 14.5485 27.8604 14.6566 28.2744 14.8728C28.691 15.089 29.0021 15.3882 29.2077 15.7706C29.4134 16.1502 29.5162 16.5892 29.5162 17.0875C29.5162 17.5832 29.4121 18.0196 29.2038 18.3966C28.9981 18.771 28.687 19.0624 28.2704 19.2707C27.8565 19.479 27.3357 19.5831 26.7082 19.5831H24.5211V18.5311H26.5975C26.993 18.5311 27.3146 18.4744 27.5625 18.361C27.813 18.2477 27.9962 18.0829 28.1122 17.8667C28.2282 17.6505 28.2862 17.3908 28.2862 17.0875C28.2862 16.7817 28.2269 16.5167 28.1083 16.2926C27.9922 16.0685 27.809 15.8971 27.5585 15.7785C27.3107 15.6572 26.9851 15.5965 26.5816 15.5965H25.0471V22.6482H23.8251ZM27.8235 18.9938L29.8247 22.6482H28.4326L26.4709 18.9938H27.8235ZM33.4504 22.7708C32.8519 22.7708 32.3364 22.6429 31.904 22.3872C31.4742 22.1288 31.142 21.7662 30.9074 21.2996C30.6753 20.8302 30.5593 20.2805 30.5593 19.6503C30.5593 19.0281 30.6753 18.4797 30.9074 18.0051C31.142 17.5305 31.469 17.1601 31.8882 16.8938C32.3101 16.6275 32.8031 16.4943 33.3673 16.4943C33.7101 16.4943 34.0423 16.551 34.364 16.6644C34.6857 16.7777 34.9744 16.9557 35.2301 17.1983C35.4859 17.4409 35.6876 17.7559 35.8352 18.1435C35.9829 18.5285 36.0567 18.9965 36.0567 19.5475V19.9667H31.2277V19.0808H34.8979C34.8979 18.7697 34.8346 18.4942 34.7081 18.2543C34.5815 18.0117 34.4035 17.8205 34.1741 17.6808C33.9474 17.541 33.6811 17.4712 33.3752 17.4712C33.043 17.4712 32.753 17.5529 32.5052 17.7164C32.26 17.8772 32.0701 18.0881 31.9356 18.3492C31.8038 18.6076 31.7379 18.8884 31.7379 19.1916V19.8837C31.7379 20.2897 31.8091 20.6351 31.9515 20.9199C32.0965 21.2046 32.2982 21.4222 32.5566 21.5724C32.815 21.7201 33.1169 21.7939 33.4623 21.7939C33.6864 21.7939 33.8907 21.7623 34.0753 21.699C34.2598 21.6331 34.4194 21.5355 34.5538 21.4063C34.6883 21.2771 34.7911 21.1176 34.8623 20.9278L35.9816 21.1295C35.8919 21.4591 35.7311 21.7478 35.4991 21.9956C35.2697 22.2408 34.981 22.432 34.6329 22.5691C34.2875 22.7036 33.8933 22.7708 33.4504 22.7708ZM39.9157 25.0528C39.4332 25.0528 39.018 24.9895 38.6699 24.863C38.3245 24.7364 38.0424 24.569 37.8236 24.3607C37.6047 24.1524 37.4413 23.9243 37.3332 23.6765L38.3496 23.2573C38.4208 23.3733 38.5157 23.4959 38.6343 23.6251C38.7556 23.7569 38.9191 23.869 39.1247 23.9612C39.333 24.0535 39.6007 24.0997 39.9276 24.0997C40.3758 24.0997 40.7463 23.9902 41.0389 23.7714C41.3316 23.5552 41.4779 23.2098 41.4779 22.7352V21.5408H41.4028C41.3316 21.67 41.2288 21.8137 41.0943 21.9719C40.9625 22.1301 40.7805 22.2672 40.5485 22.3832C40.3165 22.4992 40.0146 22.5572 39.6428 22.5572C39.163 22.5572 38.7306 22.4452 38.3456 22.2211C37.9633 21.9943 37.6601 21.6608 37.436 21.2205C37.2145 20.7775 37.1038 20.233 37.1038 19.5871C37.1038 18.9411 37.2132 18.3874 37.432 17.926C37.6535 17.4646 37.9567 17.1113 38.3417 16.8661C38.7266 16.6182 39.163 16.4943 39.6507 16.4943C40.0278 16.4943 40.3323 16.5576 40.5643 16.6841C40.7964 16.8081 40.977 16.9531 41.1062 17.1192C41.238 17.2853 41.3395 17.4316 41.4107 17.5582H41.4977V16.5734H42.6565V22.7827C42.6565 23.3047 42.5352 23.7332 42.2926 24.068C42.0501 24.4029 41.7218 24.6507 41.3079 24.8115C40.8966 24.9724 40.4325 25.0528 39.9157 25.0528ZM39.9039 21.5764C40.244 21.5764 40.5314 21.4973 40.766 21.3391C41.0033 21.1783 41.1826 20.9489 41.3039 20.6509C41.4278 20.3504 41.4898 19.9905 41.4898 19.5712C41.4898 19.1626 41.4292 18.8027 41.3079 18.4916C41.1866 18.1804 41.0086 17.9379 40.774 17.7638C40.5393 17.5872 40.2493 17.4989 39.9039 17.4989C39.5479 17.4989 39.2513 17.5911 39.014 17.7757C38.7767 17.9576 38.5974 18.2055 38.4761 18.5192C38.3575 18.833 38.2982 19.1837 38.2982 19.5712C38.2982 19.9694 38.3588 20.3187 38.4801 20.6193C38.6014 20.9199 38.7807 21.1545 39.018 21.3233C39.2579 21.492 39.5532 21.5764 39.9039 21.5764ZM44.2424 22.6482V16.5734H45.425V22.6482H44.2424ZM44.8396 15.6361C44.634 15.6361 44.4573 15.5675 44.3097 15.4304C44.1647 15.2907 44.0921 15.1246 44.0921 14.9321C44.0921 14.737 44.1647 14.5709 44.3097 14.4338C44.4573 14.294 44.634 14.2242 44.8396 14.2242C45.0453 14.2242 45.2206 14.294 45.3656 14.4338C45.5133 14.5709 45.5871 14.737 45.5871 14.9321C45.5871 15.1246 45.5133 15.2907 45.3656 15.4304C45.2206 15.5675 45.0453 15.6361 44.8396 15.6361ZM51.568 18.0565L50.4962 18.2463C50.4514 18.1092 50.3802 17.9787 50.2826 17.8548C50.1877 17.7309 50.0585 17.6294 49.895 17.5503C49.7316 17.4712 49.5272 17.4316 49.282 17.4316C48.9472 17.4316 48.6677 17.5068 48.4436 17.6571C48.2195 17.8047 48.1074 17.9959 48.1074 18.2305C48.1074 18.4335 48.1825 18.597 48.3328 18.7209C48.4831 18.8449 48.7257 18.9464 49.0605 19.0255L50.0255 19.2469C50.5845 19.3761 51.0011 19.5752 51.2753 19.8441C51.5495 20.1131 51.6866 20.4624 51.6866 20.8922C51.6866 21.2561 51.5812 21.5804 51.3702 21.8651C51.1619 22.1472 50.8706 22.3687 50.4962 22.5295C50.1244 22.6904 49.6933 22.7708 49.2029 22.7708C48.5227 22.7708 47.9677 22.6258 47.5379 22.3358C47.1081 22.0431 46.8445 21.6278 46.7469 21.0899L47.8899 20.9159C47.9611 21.2139 48.1074 21.4393 48.3289 21.5922C48.5504 21.7425 48.8391 21.8177 49.195 21.8177C49.5826 21.8177 49.8924 21.7372 50.1244 21.5764C50.3564 21.4129 50.4725 21.2139 50.4725 20.9792C50.4725 20.7894 50.4013 20.6299 50.2589 20.5007C50.1191 20.3715 49.9043 20.2739 49.6142 20.208L48.5859 19.9826C48.0191 19.8534 47.5998 19.6477 47.3283 19.3656C47.0593 19.0835 46.9249 18.7262 46.9249 18.2938C46.9249 17.9352 47.0251 17.6215 47.2254 17.3525C47.4258 17.0836 47.7027 16.874 48.056 16.7237C48.4093 16.5708 48.814 16.4943 49.2702 16.4943C49.9267 16.4943 50.4435 16.6367 50.8205 16.9214C51.1975 17.2036 51.4467 17.5819 51.568 18.0565ZM55.8225 16.5734V17.5226H52.5043V16.5734H55.8225ZM53.3942 15.118H54.5767V20.8645C54.5767 21.0939 54.611 21.2666 54.6795 21.3826C54.7481 21.496 54.8364 21.5738 54.9445 21.616C55.0552 21.6555 55.1752 21.6753 55.3044 21.6753C55.3993 21.6753 55.4824 21.6687 55.5536 21.6555C55.6248 21.6423 55.6801 21.6318 55.7197 21.6239L55.9332 22.6007C55.8647 22.6271 55.7671 22.6535 55.6406 22.6798C55.514 22.7088 55.3558 22.7247 55.166 22.7273C54.8549 22.7326 54.5648 22.6772 54.2959 22.5612C54.027 22.4452 53.8094 22.2659 53.6433 22.0233C53.4772 21.7807 53.3942 21.4762 53.3942 21.1097V15.118ZM59.6835 22.7708C59.085 22.7708 58.5695 22.6429 58.1371 22.3872C57.7074 22.1288 57.3751 21.7662 57.1405 21.2996C56.9085 20.8302 56.7924 20.2805 56.7924 19.6503C56.7924 19.0281 56.9085 18.4797 57.1405 18.0051C57.3751 17.5305 57.7021 17.1601 58.1213 16.8938C58.5432 16.6275 59.0362 16.4943 59.6005 16.4943C59.9432 16.4943 60.2754 16.551 60.5971 16.6644C60.9188 16.7777 61.2075 16.9557 61.4632 17.1983C61.719 17.4409 61.9207 17.7559 62.0683 18.1435C62.216 18.5285 62.2898 18.9965 62.2898 19.5475V19.9667H57.4608V19.0808H61.131C61.131 18.7697 61.0677 18.4942 60.9412 18.2543C60.8146 18.0117 60.6366 17.8205 60.4073 17.6808C60.1805 17.541 59.9142 17.4712 59.6084 17.4712C59.2761 17.4712 58.9861 17.5529 58.7383 17.7164C58.4931 17.8772 58.3032 18.0881 58.1688 18.3492C58.0369 18.6076 57.971 18.8884 57.971 19.1916V19.8837C57.971 20.2897 58.0422 20.6351 58.1846 20.9199C58.3296 21.2046 58.5313 21.4222 58.7897 21.5724C59.0481 21.7201 59.35 21.7939 59.6954 21.7939C59.9195 21.7939 60.1238 21.7623 60.3084 21.699C60.493 21.6331 60.6525 21.5355 60.7869 21.4063C60.9214 21.2771 61.0242 21.1176 61.0954 20.9278L62.2147 21.1295C62.125 21.4591 61.9642 21.7478 61.7322 21.9956C61.5028 22.2408 61.2141 22.432 60.866 22.5691C60.5206 22.7036 60.1265 22.7708 59.6835 22.7708ZM63.6019 22.6482V16.5734H64.7448V17.5384H64.8081C64.9189 17.2115 65.114 16.9544 65.3935 16.7672C65.6756 16.5774 65.9946 16.4824 66.3505 16.4824C66.4244 16.4824 66.5114 16.4851 66.6116 16.4904C66.7144 16.4956 66.7948 16.5022 66.8528 16.5101V17.6412C66.8054 17.6281 66.721 17.6136 66.5997 17.5977C66.4784 17.5793 66.3571 17.57 66.2359 17.57C65.9564 17.57 65.7072 17.6294 65.4884 17.748C65.2722 17.864 65.1008 18.0262 64.9742 18.2345C64.8477 18.4401 64.7844 18.6748 64.7844 18.9385V22.6482H63.6019Z" fill="white"/>
</svg>
