<svg width="125" height="37" viewBox="0 0 125 37" fill="none" xmlns="http://www.w3.org/2000/svg">
<rect x="0.0429688" y="0.41687" width="124.254" height="36.4899" rx="2.78428" fill="#4CAF4F"/>
<path d="M28.996 16.621C28.9195 16.3811 28.8167 16.1662 28.6875 15.9763C28.561 15.7839 28.4093 15.6204 28.2327 15.4859C28.056 15.3488 27.8543 15.2447 27.6276 15.1735C27.4035 15.1023 27.1569 15.0667 26.888 15.0667C26.4319 15.0667 26.0206 15.184 25.6541 15.4187C25.2876 15.6534 24.9976 15.9974 24.784 16.4509C24.5731 16.9018 24.4676 17.4542 24.4676 18.1081C24.4676 18.7646 24.5744 19.3196 24.7879 19.7731C25.0015 20.2266 25.2942 20.5707 25.6659 20.8053C26.0377 21.04 26.4609 21.1573 26.9355 21.1573C27.3758 21.1573 27.7594 21.0677 28.0864 20.8884C28.4159 20.7091 28.6704 20.456 28.8497 20.129C29.0316 19.7994 29.1226 19.4119 29.1226 18.9663L29.4389 19.0256H27.1214V18.0171H30.3051V18.9386C30.3051 19.6188 30.1601 20.2094 29.87 20.7104C29.5826 21.2087 29.1845 21.5937 28.6756 21.8652C28.1694 22.1368 27.5894 22.2726 26.9355 22.2726C26.2025 22.2726 25.5592 22.1039 25.0055 21.7664C24.4544 21.4289 24.0246 20.9503 23.7161 20.3307C23.4077 19.7085 23.2534 18.9702 23.2534 18.116C23.2534 17.47 23.3431 16.8899 23.5224 16.3758C23.7016 15.8616 23.9534 15.4253 24.2778 15.0667C24.6047 14.7055 24.9883 14.43 25.4286 14.2401C25.8716 14.0476 26.3554 13.9514 26.8801 13.9514C27.3178 13.9514 27.7251 14.016 28.1022 14.1452C28.4819 14.2744 28.8193 14.4576 29.1146 14.6949C29.4126 14.9322 29.6591 15.2144 29.8542 15.5413C30.0493 15.8656 30.1812 16.2255 30.2497 16.621H28.996ZM34.3797 22.2845C33.7811 22.2845 33.2657 22.1566 32.8333 21.9008C32.4035 21.6424 32.0713 21.2799 31.8366 20.8132C31.6046 20.3439 31.4886 19.7942 31.4886 19.164C31.4886 18.5418 31.6046 17.9934 31.8366 17.5188C32.0713 17.0442 32.3982 16.6737 32.8175 16.4074C33.2393 16.1411 33.7324 16.008 34.2966 16.008C34.6394 16.008 34.9716 16.0647 35.2932 16.178C35.6149 16.2914 35.9036 16.4694 36.1594 16.712C36.4151 16.9545 36.6168 17.2696 36.7645 17.6572C36.9121 18.0421 36.986 18.5101 36.986 19.0612V19.4804H32.157V18.5945H35.8272C35.8272 18.2834 35.7639 18.0079 35.6373 17.7679C35.5108 17.5254 35.3328 17.3342 35.1034 17.1945C34.8767 17.0547 34.6104 16.9848 34.3045 16.9848C33.9723 16.9848 33.6823 17.0666 33.4344 17.2301C33.1892 17.3909 32.9994 17.6018 32.8649 17.8628C32.7331 18.1212 32.6672 18.402 32.6672 18.7052V19.3974C32.6672 19.8034 32.7384 20.1488 32.8807 20.4336C33.0257 20.7183 33.2275 20.9358 33.4858 21.0861C33.7442 21.2338 34.0461 21.3076 34.3915 21.3076C34.6156 21.3076 34.82 21.276 35.0045 21.2127C35.1891 21.1468 35.3486 21.0492 35.4831 20.92C35.6176 20.7908 35.7204 20.6313 35.7916 20.4415L36.9108 20.6432C36.8212 20.9727 36.6603 21.2615 36.4283 21.5093C36.1989 21.7545 35.9102 21.9457 35.5622 22.0828C35.2168 22.2172 34.8226 22.2845 34.3797 22.2845ZM41.1337 16.0871V17.0363H37.8155V16.0871H41.1337ZM38.7054 14.6317H39.8879V20.3782C39.8879 20.6076 39.9222 20.7803 39.9907 20.8963C40.0593 21.0097 40.1476 21.0874 40.2557 21.1296C40.3664 21.1692 40.4864 21.1889 40.6156 21.1889C40.7105 21.1889 40.7936 21.1824 40.8648 21.1692C40.936 21.156 40.9913 21.1454 41.0309 21.1375L41.2444 22.1144C41.1759 22.1408 41.0783 22.1671 40.9518 22.1935C40.8252 22.2225 40.667 22.2383 40.4772 22.241C40.1661 22.2462 39.876 22.1909 39.6071 22.0749C39.3382 21.9588 39.1206 21.7796 38.9545 21.537C38.7884 21.2944 38.7054 20.9899 38.7054 20.6234V14.6317ZM47.1571 22.2963C46.7721 22.2963 46.4241 22.2251 46.113 22.0828C45.8019 21.9378 45.5553 21.7281 45.3734 21.4539C45.1941 21.1797 45.1045 20.8436 45.1045 20.4454C45.1045 20.1027 45.1704 19.8205 45.3022 19.5991C45.434 19.3776 45.612 19.2023 45.8361 19.0731C46.0602 18.9439 46.3107 18.8463 46.5876 18.7804C46.8644 18.7145 47.1465 18.6644 47.4339 18.6301C47.7978 18.5879 48.0931 18.5536 48.3198 18.5273C48.5466 18.4983 48.7114 18.4521 48.8142 18.3889C48.917 18.3256 48.9684 18.2227 48.9684 18.0804V18.0527C48.9684 17.7073 48.8709 17.4397 48.6758 17.2498C48.4833 17.06 48.1959 16.9651 47.8136 16.9651C47.4155 16.9651 47.1017 17.0534 46.8723 17.2301C46.6456 17.4041 46.4887 17.5979 46.4017 17.8114L45.2903 17.5583C45.4222 17.1892 45.6147 16.8912 45.8678 16.6645C46.1235 16.4351 46.4175 16.269 46.7497 16.1662C47.0819 16.0607 47.4313 16.008 47.7978 16.008C48.0404 16.008 48.2974 16.037 48.569 16.095C48.8432 16.1504 49.099 16.2532 49.3363 16.4035C49.5762 16.5538 49.7726 16.7686 49.9255 17.0481C50.0785 17.325 50.1549 17.6849 50.1549 18.1278V22.1619H49.0001V21.3313H48.9526C48.8762 21.4843 48.7615 21.6345 48.6085 21.7822C48.4556 21.9298 48.2592 22.0524 48.0193 22.15C47.7793 22.2476 47.4919 22.2963 47.1571 22.2963ZM47.4142 21.3471C47.7411 21.3471 48.0206 21.2826 48.2526 21.1534C48.4873 21.0242 48.6652 20.8554 48.7865 20.6471C48.9104 20.4362 48.9724 20.2108 48.9724 19.9708V19.1878C48.9302 19.2299 48.8485 19.2695 48.7272 19.3064C48.6085 19.3407 48.4728 19.371 48.3198 19.3974C48.1669 19.4211 48.0179 19.4435 47.8729 19.4646C47.7279 19.4831 47.6066 19.4989 47.5091 19.5121C47.2797 19.5411 47.0701 19.5898 46.8802 19.6584C46.693 19.7269 46.5427 19.8258 46.4294 19.955C46.3186 20.0816 46.2633 20.2503 46.2633 20.4612C46.2633 20.7539 46.3714 20.9754 46.5876 21.1257C46.8038 21.2733 47.0793 21.3471 47.4142 21.3471ZM57.3944 22.1619H54.7723V14.0621H57.4775C58.2711 14.0621 58.9527 14.2243 59.5222 14.5486C60.0917 14.8703 60.5281 15.333 60.8313 15.9368C61.1371 16.5379 61.2901 17.2591 61.2901 18.1001C61.2901 18.9439 61.1358 19.6689 60.8273 20.2754C60.5215 20.8818 60.0785 21.3485 59.4985 21.6754C58.9184 21.9997 58.2171 22.1619 57.3944 22.1619ZM55.9944 21.094H57.3272C57.9442 21.094 58.457 20.978 58.8657 20.746C59.2744 20.5113 59.5802 20.1725 59.7832 19.7296C59.9862 19.284 60.0878 18.7408 60.0878 18.1001C60.0878 17.4647 59.9862 16.9255 59.7832 16.4826C59.5828 16.0396 59.2836 15.7034 58.8855 15.4741C58.4873 15.2447 57.993 15.13 57.4024 15.13H55.9944V21.094ZM65.333 22.2845C64.7345 22.2845 64.219 22.1566 63.7866 21.9008C63.3568 21.6424 63.0246 21.2799 62.79 20.8132C62.5579 20.3439 62.4419 19.7942 62.4419 19.164C62.4419 18.5418 62.5579 17.9934 62.79 17.5188C63.0246 17.0442 63.3516 16.6737 63.7708 16.4074C64.1927 16.1411 64.6857 16.008 65.2499 16.008C65.5927 16.008 65.9249 16.0647 66.2466 16.178C66.5683 16.2914 66.857 16.4694 67.1127 16.712C67.3685 16.9545 67.5702 17.2696 67.7178 17.6572C67.8655 18.0421 67.9393 18.5101 67.9393 19.0612V19.4804H63.1103V18.5945H66.7805C66.7805 18.2834 66.7172 18.0079 66.5907 17.7679C66.4641 17.5254 66.2861 17.3342 66.0568 17.1945C65.83 17.0547 65.5637 16.9848 65.2579 16.9848C64.9256 16.9848 64.6356 17.0666 64.3878 17.2301C64.1426 17.3909 63.9527 17.6018 63.8183 17.8628C63.6864 18.1212 63.6205 18.402 63.6205 18.7052V19.3974C63.6205 19.8034 63.6917 20.1488 63.8341 20.4336C63.9791 20.7183 64.1808 20.9358 64.4392 21.0861C64.6976 21.2338 64.9995 21.3076 65.3449 21.3076C65.569 21.3076 65.7733 21.276 65.9579 21.2127C66.1424 21.1468 66.302 21.0492 66.4364 20.92C66.5709 20.7908 66.6737 20.6313 66.7449 20.4415L67.8642 20.6432C67.7745 20.9727 67.6137 21.2615 67.3817 21.5093C67.1523 21.7545 66.8636 21.9457 66.5155 22.0828C66.1701 22.2172 65.776 22.2845 65.333 22.2845ZM69.2514 22.1619V16.0871H70.3864V17.0758H70.4616C70.5881 16.741 70.7951 16.4799 71.0825 16.2927C71.3699 16.1029 71.714 16.008 72.1147 16.008C72.5208 16.008 72.8609 16.1029 73.1351 16.2927C73.412 16.4826 73.6163 16.7436 73.7481 17.0758H73.8114C73.9564 16.7515 74.1871 16.4931 74.5035 16.3006C74.8199 16.1055 75.1969 16.008 75.6346 16.008C76.1857 16.008 76.6352 16.1807 76.9833 16.5261C77.3339 16.8715 77.5093 17.3922 77.5093 18.0883V22.1619H76.3267V18.199C76.3267 17.7877 76.2147 17.4898 75.9906 17.3052C75.7665 17.1206 75.4988 17.0284 75.1877 17.0284C74.8028 17.0284 74.5035 17.147 74.29 17.3843C74.0764 17.619 73.9696 17.9209 73.9696 18.29V22.1619H72.791V18.1239C72.791 17.7943 72.6882 17.5293 72.4825 17.3289C72.2769 17.1285 72.0093 17.0284 71.6797 17.0284C71.4556 17.0284 71.2486 17.0877 71.0588 17.2063C70.8716 17.3223 70.72 17.4845 70.6039 17.6928C70.4906 17.9011 70.4339 18.1423 70.4339 18.4165V22.1619H69.2514ZM81.6531 22.2845C81.0835 22.2845 80.5865 22.154 80.162 21.8929C79.7376 21.6319 79.408 21.2667 79.1733 20.7974C78.9387 20.3281 78.8213 19.7797 78.8213 19.1522C78.8213 18.522 78.9387 17.9709 79.1733 17.499C79.408 17.027 79.7376 16.6605 80.162 16.3995C80.5865 16.1385 81.0835 16.008 81.6531 16.008C82.2226 16.008 82.7196 16.1385 83.1441 16.3995C83.5686 16.6605 83.8981 17.027 84.1328 17.499C84.3675 17.9709 84.4848 18.522 84.4848 19.1522C84.4848 19.7797 84.3675 20.3281 84.1328 20.7974C83.8981 21.2667 83.5686 21.6319 83.1441 21.8929C82.7196 22.154 82.2226 22.2845 81.6531 22.2845ZM81.657 21.2918C82.0261 21.2918 82.332 21.1942 82.5746 20.9991C82.8171 20.804 82.9964 20.5443 83.1124 20.22C83.2311 19.8957 83.2904 19.5384 83.2904 19.1482C83.2904 18.7606 83.2311 18.4047 83.1124 18.0804C82.9964 17.7534 82.8171 17.4911 82.5746 17.2933C82.332 17.0956 82.0261 16.9967 81.657 16.9967C81.2853 16.9967 80.9768 17.0956 80.7316 17.2933C80.489 17.4911 80.3084 17.7534 80.1897 18.0804C80.0737 18.4047 80.0157 18.7606 80.0157 19.1482C80.0157 19.5384 80.0737 19.8957 80.1897 20.22C80.3084 20.5443 80.489 20.804 80.7316 20.9991C80.9768 21.1942 81.2853 21.2918 81.657 21.2918Z" fill="white"/>
<path d="M98.7167 20.7501L100.436 19.031C100.64 18.8271 100.64 18.4966 100.436 18.2927L98.7167 16.5736M100.283 18.6619L92.6259 18.6619" stroke="white" stroke-width="0.765676" stroke-linecap="round"/>
</svg>
