<svg width="51" height="20" viewBox="0 0 51 20" fill="none" xmlns="http://www.w3.org/2000/svg">
<rect x="0.339111" y="0.706543" width="50.3675" height="18.3483" rx="1.33547" fill="#4CAF4F"/>
<path d="M11.4786 11.3806V7.49562H12.0648V10.876H13.8252V11.3806H11.4786ZM15.7041 11.4394C15.417 11.4394 15.1698 11.3781 14.9624 11.2554C14.7563 11.1315 14.5969 10.9576 14.4844 10.7337C14.3731 10.5086 14.3174 10.245 14.3174 9.94271C14.3174 9.64426 14.3731 9.38121 14.4844 9.15357C14.5969 8.92594 14.7537 8.74825 14.9548 8.62053C15.1572 8.4928 15.3936 8.42893 15.6643 8.42893C15.8287 8.42893 15.988 8.45612 16.1423 8.5105C16.2966 8.56488 16.4351 8.65024 16.5578 8.76659C16.6804 8.88294 16.7772 9.03406 16.848 9.21997C16.9188 9.40461 16.9542 9.62908 16.9542 9.89339V10.0945H14.638V9.66955H16.3984C16.3984 9.52032 16.3681 9.38817 16.3074 9.27308C16.2466 9.15674 16.1613 9.06505 16.0513 8.99802C15.9425 8.931 15.8148 8.89748 15.6681 8.89748C15.5087 8.89748 15.3696 8.93669 15.2507 9.01509C15.1331 9.09224 15.0421 9.19341 14.9776 9.31861C14.9143 9.44255 14.8827 9.57723 14.8827 9.72266V10.0546C14.8827 10.2494 14.9169 10.4151 14.9852 10.5516C15.0547 10.6882 15.1515 10.7926 15.2754 10.8646C15.3993 10.9355 15.5441 10.9709 15.7098 10.9709C15.8173 10.9709 15.9153 10.9557 16.0038 10.9253C16.0924 10.8937 16.1689 10.8469 16.2334 10.785C16.2979 10.723 16.3472 10.6465 16.3813 10.5554L16.9182 10.6522C16.8752 10.8103 16.798 10.9487 16.6867 11.0676C16.5767 11.1852 16.4382 11.2769 16.2713 11.3427C16.1056 11.4072 15.9166 11.4394 15.7041 11.4394ZM18.4315 11.4451C18.2468 11.4451 18.0799 11.411 17.9307 11.3427C17.7815 11.2731 17.6632 11.1726 17.576 11.0411C17.49 10.9095 17.447 10.7483 17.447 10.5573C17.447 10.3929 17.4786 10.2576 17.5418 10.1514C17.605 10.0451 17.6904 9.96105 17.7979 9.89908C17.9054 9.83711 18.0255 9.79032 18.1583 9.75871C18.2911 9.72709 18.4264 9.70306 18.5643 9.68662C18.7388 9.66639 18.8804 9.64995 18.9892 9.6373C19.098 9.62339 19.177 9.60126 19.2263 9.57091C19.2756 9.54056 19.3003 9.49123 19.3003 9.42294V9.40966C19.3003 9.244 19.2535 9.11563 19.1599 9.02458C19.0676 8.93353 18.9298 8.888 18.7464 8.888C18.5554 8.888 18.4049 8.93036 18.2949 9.01509C18.1861 9.09856 18.1109 9.19151 18.0692 9.29395L17.5361 9.17254C17.5993 8.99549 17.6917 8.85259 17.8131 8.74383C17.9357 8.6338 18.0768 8.55413 18.2361 8.50481C18.3954 8.45422 18.563 8.42893 18.7388 8.42893C18.8551 8.42893 18.9784 8.44284 19.1087 8.47066C19.2402 8.49722 19.3629 8.54654 19.4767 8.61863C19.5918 8.69071 19.686 8.79378 19.7594 8.92783C19.8327 9.06062 19.8694 9.23325 19.8694 9.44571V11.3806H19.3155V10.9823H19.2927C19.256 11.0556 19.201 11.1277 19.1277 11.1985C19.0543 11.2693 18.9601 11.3281 18.845 11.3749C18.7299 11.4217 18.5921 11.4451 18.4315 11.4451ZM18.5548 10.9898C18.7116 10.9898 18.8457 10.9589 18.9569 10.8969C19.0695 10.8349 19.1549 10.754 19.213 10.6541C19.2725 10.5529 19.3022 10.4448 19.3022 10.3297V9.95409C19.282 9.97433 19.2428 9.9933 19.1846 10.011C19.1277 10.0274 19.0625 10.042 18.9892 10.0546C18.9158 10.066 18.8444 10.0768 18.7748 10.0869C18.7053 10.0957 18.6471 10.1033 18.6003 10.1096C18.4903 10.1236 18.3898 10.147 18.2987 10.1798C18.2089 10.2127 18.1368 10.2601 18.0824 10.3221C18.0293 10.3828 18.0028 10.4637 18.0028 10.5649C18.0028 10.7053 18.0546 10.8115 18.1583 10.8836C18.262 10.9544 18.3942 10.9898 18.5548 10.9898ZM20.6249 11.3806V8.46687H21.1731V8.92973H21.2034C21.2565 8.77292 21.3501 8.64961 21.4842 8.55982C21.6195 8.46877 21.7725 8.42324 21.9432 8.42324C21.9787 8.42324 22.0204 8.42451 22.0684 8.42703C22.1178 8.42956 22.1563 8.43273 22.1842 8.43652V8.97905C22.1614 8.97273 22.1209 8.96577 22.0628 8.95819C22.0046 8.94933 21.9464 8.94491 21.8882 8.94491C21.7542 8.94491 21.6347 8.97336 21.5297 9.03027C21.426 9.08592 21.3438 9.16369 21.2831 9.2636C21.2224 9.36224 21.192 9.47479 21.192 9.60126V11.3806H20.6249ZM23.2422 9.65058V11.3806H22.675V8.46687H23.2194V8.94111H23.2555C23.3225 8.78683 23.4275 8.66289 23.5704 8.56931C23.7145 8.47572 23.896 8.42893 24.1148 8.42893C24.3134 8.42893 24.4872 8.47066 24.6365 8.55413C24.7857 8.63633 24.9014 8.759 24.9836 8.92214C25.0658 9.08528 25.1069 9.28699 25.1069 9.52728V11.3806H24.5397V9.59557C24.5397 9.38437 24.4847 9.21934 24.3747 9.10046C24.2647 8.98032 24.1135 8.92025 23.9213 8.92025C23.7898 8.92025 23.6728 8.9487 23.5704 9.00561C23.4692 9.06252 23.3889 9.14599 23.3295 9.25601C23.2713 9.36477 23.2422 9.49629 23.2422 9.65058ZM27.3268 7.49562H28.0382L29.275 10.5156H29.3206L30.5574 7.49562H31.2687V11.3806H30.711V8.56931H30.675L29.5292 11.3749H29.0664L27.9206 8.56741H27.8846V11.3806H27.3268V7.49562ZM33.3028 11.4394C33.0296 11.4394 32.7912 11.3768 32.5876 11.2516C32.384 11.1264 32.2259 10.9513 32.1134 10.7262C32.0008 10.5011 31.9445 10.238 31.9445 9.93702C31.9445 9.63477 32.0008 9.37046 32.1134 9.14409C32.2259 8.91772 32.384 8.74193 32.5876 8.61673C32.7912 8.49153 33.0296 8.42893 33.3028 8.42893C33.5759 8.42893 33.8143 8.49153 34.0179 8.61673C34.2215 8.74193 34.3796 8.91772 34.4922 9.14409C34.6047 9.37046 34.661 9.63477 34.661 9.93702C34.661 10.238 34.6047 10.5011 34.4922 10.7262C34.3796 10.9513 34.2215 11.1264 34.0179 11.2516C33.8143 11.3768 33.5759 11.4394 33.3028 11.4394ZM33.3047 10.9633C33.4817 10.9633 33.6284 10.9165 33.7448 10.8229C33.8611 10.7293 33.9471 10.6048 34.0028 10.4492C34.0597 10.2937 34.0881 10.1223 34.0881 9.93512C34.0881 9.74922 34.0597 9.57849 34.0028 9.42294C33.9471 9.26613 33.8611 9.14029 33.7448 9.04545C33.6284 8.9506 33.4817 8.90317 33.3047 8.90317C33.1264 8.90317 32.9784 8.9506 32.8608 9.04545C32.7444 9.14029 32.6578 9.26613 32.6009 9.42294C32.5452 9.57849 32.5174 9.74922 32.5174 9.93512C32.5174 10.1223 32.5452 10.2937 32.6009 10.4492C32.6578 10.6048 32.7444 10.7293 32.8608 10.8229C32.9784 10.9165 33.1264 10.9633 33.3047 10.9633ZM35.2941 11.3806V8.46687H35.8423V8.92973H35.8727C35.9258 8.77292 36.0194 8.64961 36.1534 8.55982C36.2888 8.46877 36.4418 8.42324 36.6125 8.42324C36.6479 8.42324 36.6897 8.42451 36.7377 8.42703C36.787 8.42956 36.8256 8.43273 36.8534 8.43652V8.97905C36.8307 8.97273 36.7902 8.96577 36.732 8.95819C36.6738 8.94933 36.6157 8.94491 36.5575 8.94491C36.4234 8.94491 36.3039 8.97336 36.199 9.03027C36.0953 9.08592 36.0131 9.16369 35.9524 9.2636C35.8917 9.36224 35.8613 9.47479 35.8613 9.60126V11.3806H35.2941ZM38.4957 11.4394C38.2086 11.4394 37.9614 11.3781 37.754 11.2554C37.5479 11.1315 37.3885 10.9576 37.276 10.7337C37.1647 10.5086 37.109 10.245 37.109 9.94271C37.109 9.64426 37.1647 9.38121 37.276 9.15357C37.3885 8.92594 37.5453 8.74825 37.7464 8.62053C37.9488 8.4928 38.1853 8.42893 38.4559 8.42893C38.6203 8.42893 38.7796 8.45612 38.9339 8.5105C39.0882 8.56488 39.2267 8.65024 39.3494 8.76659C39.472 8.88294 39.5688 9.03406 39.6396 9.21997C39.7104 9.40461 39.7458 9.62908 39.7458 9.89339V10.0945H37.4296V9.66955H39.19C39.19 9.52032 39.1597 9.38817 39.099 9.27308C39.0383 9.15674 38.9529 9.06505 38.8429 8.99802C38.7341 8.931 38.6064 8.89748 38.4597 8.89748C38.3003 8.89748 38.1612 8.93669 38.0423 9.01509C37.9247 9.09224 37.8337 9.19341 37.7692 9.31861C37.706 9.44255 37.6743 9.57723 37.6743 9.72266V10.0546C37.6743 10.2494 37.7085 10.4151 37.7768 10.5516C37.8463 10.6882 37.9431 10.7926 38.067 10.8646C38.1909 10.9355 38.3357 10.9709 38.5014 10.9709C38.6089 10.9709 38.7069 10.9557 38.7954 10.9253C38.884 10.8937 38.9605 10.8469 39.025 10.785C39.0895 10.723 39.1388 10.6465 39.1729 10.5554L39.7098 10.6522C39.6668 10.8103 39.5896 10.9487 39.4784 11.0676C39.3683 11.1852 39.2299 11.2769 39.0629 11.3427C38.8972 11.4072 38.7082 11.4394 38.4957 11.4394Z" fill="white"/>
</svg>
