<svg width="107" height="38" viewBox="0 0 107 38" fill="none" xmlns="http://www.w3.org/2000/svg">
<rect x="0.700165" y="0.613037" width="105.548" height="36.4899" rx="2.78428" fill="#4CAF4F"/>
<path d="M24.194 22.358V14.2583H25.416V21.306H29.0862V22.358H24.194ZM33.0036 22.4806C32.4051 22.4806 31.8896 22.3528 31.4572 22.097C31.0274 21.8386 30.6952 21.4761 30.4606 21.0094C30.2285 20.5401 30.1125 19.9903 30.1125 19.3602C30.1125 18.7379 30.2285 18.1895 30.4606 17.7149C30.6952 17.2403 31.0222 16.8699 31.4414 16.6036C31.8633 16.3373 32.3563 16.2041 32.9205 16.2041C33.2633 16.2041 33.5955 16.2608 33.9172 16.3742C34.2389 16.4876 34.5276 16.6656 34.7833 16.9081C35.0391 17.1507 35.2408 17.4658 35.3884 17.8534C35.5361 18.2383 35.6099 18.7063 35.6099 19.2574V19.6766H30.7809V18.7907H34.4511C34.4511 18.4796 34.3878 18.204 34.2613 17.9641C34.1347 17.7215 33.9567 17.5304 33.7273 17.3906C33.5006 17.2509 33.2343 17.181 32.9285 17.181C32.5962 17.181 32.3062 17.2628 32.0584 17.4262C31.8132 17.5871 31.6233 17.798 31.4889 18.059C31.357 18.3174 31.2911 18.5982 31.2911 18.9014V19.5935C31.2911 19.9996 31.3623 20.345 31.5047 20.6297C31.6497 20.9145 31.8514 21.132 32.1098 21.2823C32.3682 21.4299 32.6701 21.5038 33.0155 21.5038C33.2396 21.5038 33.4439 21.4721 33.6285 21.4088C33.813 21.3429 33.9726 21.2454 34.107 21.1162C34.2415 20.987 34.3443 20.8275 34.4155 20.6376L35.5348 20.8393C35.4451 21.1689 35.2843 21.4576 35.0523 21.7055C34.8229 21.9507 34.5342 22.1418 34.1861 22.2789C33.8407 22.4134 33.4465 22.4806 33.0036 22.4806ZM38.6898 22.4925C38.3049 22.4925 37.9568 22.4213 37.6457 22.2789C37.3346 22.1339 37.0881 21.9243 36.9061 21.6501C36.7268 21.3759 36.6372 21.0397 36.6372 20.6416C36.6372 20.2988 36.7031 20.0167 36.8349 19.7952C36.9668 19.5738 37.1447 19.3984 37.3689 19.2692C37.593 19.14 37.8435 19.0425 38.1203 18.9766C38.3971 18.9106 38.6793 18.8605 38.9667 18.8263C39.3305 18.7841 39.6258 18.7498 39.8526 18.7234C40.0793 18.6944 40.2441 18.6483 40.3469 18.585C40.4498 18.5217 40.5012 18.4189 40.5012 18.2765V18.2488C40.5012 17.9035 40.4036 17.6358 40.2085 17.446C40.016 17.2562 39.7286 17.1612 39.3463 17.1612C38.9482 17.1612 38.6344 17.2496 38.4051 17.4262C38.1783 17.6002 38.0214 17.794 37.9344 18.0076L36.8231 17.7545C36.9549 17.3854 37.1474 17.0874 37.4005 16.8607C37.6563 16.6313 37.9502 16.4652 38.2825 16.3623C38.6147 16.2569 38.964 16.2041 39.3305 16.2041C39.5731 16.2041 39.8302 16.2331 40.1017 16.2912C40.3759 16.3465 40.6317 16.4494 40.869 16.5996C41.1089 16.7499 41.3053 16.9648 41.4583 17.2443C41.6112 17.5211 41.6877 17.881 41.6877 18.324V22.358H40.5328V21.5275H40.4854C40.4089 21.6804 40.2942 21.8307 40.1413 21.9784C39.9883 22.126 39.7919 22.2486 39.552 22.3462C39.3121 22.4437 39.0247 22.4925 38.6898 22.4925ZM38.9469 21.5433C39.2738 21.5433 39.5533 21.4787 39.7853 21.3495C40.02 21.2203 40.198 21.0516 40.3192 20.8433C40.4432 20.6324 40.5051 20.4069 40.5051 20.167V19.3839C40.4629 19.4261 40.3812 19.4657 40.2599 19.5026C40.1413 19.5368 40.0055 19.5672 39.8526 19.5935C39.6996 19.6173 39.5507 19.6397 39.4057 19.6608C39.2606 19.6792 39.1394 19.695 39.0418 19.7082C38.8124 19.7372 38.6028 19.786 38.413 19.8546C38.2258 19.9231 38.0755 20.022 37.9621 20.1512C37.8514 20.2777 37.796 20.4465 37.796 20.6574C37.796 20.9501 37.9041 21.1716 38.1203 21.3218C38.3365 21.4695 38.612 21.5433 38.9469 21.5433ZM43.2627 22.358V16.2832H44.4057V17.2482H44.469C44.5797 16.9213 44.7748 16.6642 45.0543 16.477C45.3364 16.2872 45.6554 16.1923 46.0114 16.1923C46.0852 16.1923 46.1722 16.1949 46.2724 16.2002C46.3752 16.2055 46.4557 16.2121 46.5137 16.22V17.3511C46.4662 17.3379 46.3818 17.3234 46.2606 17.3076C46.1393 17.2891 46.018 17.2799 45.8967 17.2799C45.6172 17.2799 45.3681 17.3392 45.1492 17.4579C44.933 17.5739 44.7616 17.736 44.6351 17.9443C44.5085 18.15 44.4452 18.3846 44.4452 18.6483V22.358H43.2627ZM48.7195 18.7511V22.358H47.537V16.2832H48.6721V17.272H48.7472C48.887 16.9503 49.1058 16.6919 49.4037 16.4968C49.7043 16.3017 50.0827 16.2041 50.5388 16.2041C50.9528 16.2041 51.3153 16.2912 51.6264 16.4652C51.9375 16.6366 52.1788 16.8923 52.3502 17.2324C52.5216 17.5726 52.6072 17.9931 52.6072 18.4941V22.358H51.4247V18.6364C51.4247 18.1961 51.31 17.852 51.0806 17.6042C50.8513 17.3537 50.5362 17.2285 50.1354 17.2285C49.8612 17.2285 49.6173 17.2878 49.4037 17.4064C49.1928 17.5251 49.0254 17.6991 48.9015 17.9285C48.7802 18.1552 48.7195 18.4295 48.7195 18.7511ZM57.2355 14.2583H58.7186L61.2972 20.5546H61.3922L63.9708 14.2583H65.4539V22.358H64.2911V16.4968H64.216L61.8272 22.3462H60.8622L58.4734 16.4929H58.3983V22.358H57.2355V14.2583ZM69.6946 22.4806C69.1251 22.4806 68.628 22.3501 68.2036 22.0891C67.7791 21.8281 67.4495 21.4629 67.2148 20.9936C66.9802 20.5243 66.8628 19.9758 66.8628 19.3483C66.8628 18.7182 66.9802 18.1671 67.2148 17.6952C67.4495 17.2232 67.7791 16.8567 68.2036 16.5957C68.628 16.3347 69.1251 16.2041 69.6946 16.2041C70.2641 16.2041 70.7611 16.3347 71.1856 16.5957C71.6101 16.8567 71.9397 17.2232 72.1743 17.6952C72.409 18.1671 72.5263 18.7182 72.5263 19.3483C72.5263 19.9758 72.409 20.5243 72.1743 20.9936C71.9397 21.4629 71.6101 21.8281 71.1856 22.0891C70.7611 22.3501 70.2641 22.4806 69.6946 22.4806ZM69.6985 21.4879C70.0676 21.4879 70.3735 21.3904 70.6161 21.1953C70.8586 21.0002 71.0379 20.7405 71.1539 20.4162C71.2726 20.0919 71.3319 19.7346 71.3319 19.3444C71.3319 18.9568 71.2726 18.6008 71.1539 18.2765C71.0379 17.9496 70.8586 17.6872 70.6161 17.4895C70.3735 17.2918 70.0676 17.1929 69.6985 17.1929C69.3268 17.1929 69.0183 17.2918 68.7731 17.4895C68.5305 17.6872 68.3499 17.9496 68.2312 18.2765C68.1152 18.6008 68.0572 18.9568 68.0572 19.3444C68.0572 19.7346 68.1152 20.0919 68.2312 20.4162C68.3499 20.7405 68.5305 21.0002 68.7731 21.1953C69.0183 21.3904 69.3268 21.4879 69.6985 21.4879ZM73.8463 22.358V16.2832H74.9892V17.2482H75.0525C75.1633 16.9213 75.3584 16.6642 75.6379 16.477C75.92 16.2872 76.239 16.1923 76.5949 16.1923C76.6688 16.1923 76.7558 16.1949 76.856 16.2002C76.9588 16.2055 77.0392 16.2121 77.0972 16.22V17.3511C77.0498 17.3379 76.9654 17.3234 76.8441 17.3076C76.7228 17.2891 76.6015 17.2799 76.4803 17.2799C76.2008 17.2799 75.9516 17.3392 75.7328 17.4579C75.5166 17.5739 75.3452 17.736 75.2186 17.9443C75.0921 18.15 75.0288 18.3846 75.0288 18.6483V22.358H73.8463ZM80.5212 22.4806C79.9227 22.4806 79.4072 22.3528 78.9748 22.097C78.5451 21.8386 78.2128 21.4761 77.9782 21.0094C77.7462 20.5401 77.6301 19.9903 77.6301 19.3602C77.6301 18.7379 77.7462 18.1895 77.9782 17.7149C78.2128 17.2403 78.5398 16.8699 78.959 16.6036C79.3809 16.3373 79.8739 16.2041 80.4382 16.2041C80.7809 16.2041 81.1131 16.2608 81.4348 16.3742C81.7565 16.4876 82.0452 16.6656 82.3009 16.9081C82.5567 17.1507 82.7584 17.4658 82.906 17.8534C83.0537 18.2383 83.1275 18.7063 83.1275 19.2574V19.6766H78.2985V18.7907H81.9687C81.9687 18.4796 81.9054 18.204 81.7789 17.9641C81.6523 17.7215 81.4744 17.5304 81.245 17.3906C81.0182 17.2509 80.7519 17.181 80.4461 17.181C80.1139 17.181 79.8238 17.2628 79.576 17.4262C79.3308 17.5871 79.1409 17.798 79.0065 18.059C78.8746 18.3174 78.8087 18.5982 78.8087 18.9014V19.5935C78.8087 19.9996 78.8799 20.345 79.0223 20.6297C79.1673 20.9145 79.369 21.132 79.6274 21.2823C79.8858 21.4299 80.1877 21.5038 80.5331 21.5038C80.7572 21.5038 80.9615 21.4721 81.1461 21.4088C81.3307 21.3429 81.4902 21.2454 81.6246 21.1162C81.7591 20.987 81.8619 20.8275 81.9331 20.6376L83.0524 20.8393C82.9627 21.1689 82.8019 21.4576 82.5699 21.7055C82.3405 21.9507 82.0518 22.1418 81.7037 22.2789C81.3583 22.4134 80.9642 22.4806 80.5212 22.4806Z" fill="white"/>
</svg>
