<svg width="35" height="34" viewBox="0 0 35 34" fill="none" xmlns="http://www.w3.org/2000/svg">
<path d="M28.7673 29.3837V26.5994C28.7673 25.1225 28.1806 23.7062 27.1363 22.6619C26.092 21.6175 24.6756 21.0309 23.1988 21.0309H21.8066C21.4374 21.0309 21.0833 20.8842 20.8222 20.6231C20.5612 20.362 20.4145 20.0079 20.4145 19.6387V12.678C20.4145 11.9396 20.1211 11.2314 19.599 10.7092C19.0768 10.1871 18.3687 9.89375 17.6302 9.89375C16.8918 9.89375 16.1836 10.1871 15.6614 10.7092C15.1393 11.2314 14.8459 11.9396 14.8459 12.678V25.2073L11.5048 20.7524C11.2455 20.4066 10.9092 20.126 10.5225 19.9327C10.1359 19.7394 9.70963 19.6387 9.27738 19.6387H8.67319C7.46899 19.6387 6.4931 20.6146 6.4931 21.8188C6.4931 22.2142 6.6003 22.6026 6.80355 22.9409L10.6695 29.3837M17.6302 5.71733V4.3252V5.71733ZM25.983 14.0702H27.3752H25.983ZM7.88524 14.0702H9.27738H7.88524ZM11.147 7.58698L10.1628 6.60273L11.147 7.58698ZM24.1134 7.58698L25.0976 6.60273L24.1134 7.58698Z" fill="#4CAF4F"/>
<path d="M28.7673 29.3837V26.5994C28.7673 25.1225 28.1806 23.7062 27.1363 22.6619C26.092 21.6175 24.6756 21.0309 23.1988 21.0309H21.8066C21.4374 21.0309 21.0833 20.8842 20.8222 20.6231C20.5612 20.362 20.4145 20.0079 20.4145 19.6387V12.678C20.4145 11.9396 20.1211 11.2314 19.599 10.7092C19.0768 10.1871 18.3687 9.89375 17.6302 9.89375V9.89375C16.8918 9.89375 16.1836 10.1871 15.6614 10.7092C15.1393 11.2314 14.8459 11.9396 14.8459 12.678V25.2073L11.5048 20.7524C11.2455 20.4066 10.9092 20.126 10.5225 19.9327C10.1359 19.7394 9.70963 19.6387 9.27738 19.6387H8.67319C7.46899 19.6387 6.4931 20.6146 6.4931 21.8188C6.4931 22.2142 6.6003 22.6026 6.80355 22.9409L10.6695 29.3837M17.6302 5.71733V4.3252M25.983 14.0702H27.3752M7.88524 14.0702H9.27738M11.147 7.58698L10.1628 6.60273M24.1134 7.58698L25.0976 6.60273" stroke="#4CAF4F" stroke-width="1.39214" stroke-linecap="round" stroke-linejoin="round"/>
</svg>
