<svg width="39" height="22" viewBox="0 0 39 22" fill="none" xmlns="http://www.w3.org/2000/svg">
<g clip-path="url(#clip0_211_2081)">
<path d="M38.8874 7.95001C38.8913 7.92099 38.8913 7.89165 38.8874 7.86262C38.8911 7.83897 38.8911 7.81485 38.8874 7.79115L38.6037 5.74982C38.5628 5.5056 38.4534 5.27734 38.2878 5.09056L38.2391 5.03496L38.1501 4.94759L33.2403 0.801395L33.378 0.936435C33.2653 0.804263 33.1239 0.698543 32.964 0.627062C32.8042 0.555582 32.63 0.520157 32.4544 0.523401H30.9636C30.7212 0.518692 30.4843 0.594252 30.2911 0.737862C30.0883 0.595117 29.8441 0.519944 29.5944 0.523401H28.1036C27.9081 0.520291 27.7152 0.567863 27.5445 0.661313C27.3738 0.754764 27.2313 0.890775 27.1314 1.05557C26.9774 1.29095 26.9196 1.57454 26.9693 1.84986L27.1557 3.13661C27.0322 3.068 26.8925 3.0324 26.7506 3.03336H19.5317C19.2727 3.03495 19.0197 3.10938 18.8025 3.24781C18.5926 3.37666 18.424 3.56117 18.3164 3.77998L17.7574 3.31135C17.5374 3.11177 17.2469 3.00359 16.9472 3.00953H5.62067C5.36075 3.01417 5.1066 3.08536 4.88341 3.21604C4.57806 3.39125 4.35429 3.67614 4.25954 4.01033L0.662273 15.8055C0.595059 15.9999 0.588447 16.2095 0.643284 16.4076C0.698121 16.6056 0.811922 16.7832 0.970151 16.9176C1.01138 16.9518 1.05467 16.9837 1.09979 17.0128C1.09979 17.0128 1.02686 16.9652 0.986346 16.9255L5.89616 21.0796C6.10385 21.2671 6.3754 21.3719 6.65769 21.3735H18.0734C18.3341 21.3669 18.5884 21.2929 18.8107 21.159C18.9364 21.0917 19.0488 21.0029 19.1428 20.8969L19.1834 20.8413L19.2482 20.7619L19.2968 20.6745L19.8315 21.1273C20.0362 21.3073 20.3019 21.4063 20.5769 21.4053H32.0168C32.2773 21.3968 32.5311 21.323 32.7541 21.1908C32.877 21.1193 32.9888 21.0311 33.0863 20.9287L33.1268 20.8731L33.1916 20.7937C33.2261 20.7434 33.256 20.6903 33.2807 20.6348C33.3072 20.5866 33.3289 20.5361 33.3456 20.4839L36.6269 9.71335V9.61802C36.6309 9.58106 36.6309 9.54378 36.6269 9.50682V9.43535C36.6308 9.41165 36.6308 9.38753 36.6269 9.36383C36.6305 9.31361 36.6305 9.26318 36.6269 9.21291H37.6801C37.7717 9.22116 37.8639 9.22116 37.9556 9.21291H38.0285C38.0878 9.19557 38.1449 9.17156 38.1987 9.14144H38.2797L38.4255 9.03024L38.4903 8.98258L38.6037 8.83959V8.79198L38.6848 8.65692C38.6802 8.63066 38.6802 8.60378 38.6848 8.57752C38.6805 8.56462 38.6805 8.55068 38.6848 8.53779C38.702 8.49122 38.7155 8.4434 38.7253 8.3948C38.7215 8.37914 38.7215 8.3628 38.7253 8.34714C38.7213 8.32349 38.7213 8.29932 38.7253 8.27567C38.7253 8.27567 38.8874 7.96588 38.8874 7.95001Z" fill="black"/>
<path d="M17.2793 3.91505C17.3224 3.95318 17.3524 4.00332 17.3654 4.05871C17.3785 4.1141 17.3739 4.17207 17.3523 4.22482L13.7631 16.0121C13.7179 16.1408 13.6255 16.2484 13.5039 16.3139C13.4049 16.3788 13.2904 16.4171 13.1716 16.4251H1.76412C1.66669 16.4205 1.5744 16.381 1.50485 16.3139C1.46348 16.2764 1.43444 16.2276 1.42145 16.1739C1.40846 16.1201 1.41212 16.0638 1.43193 16.0121L5.0292 4.22482C5.07065 4.09451 5.16021 3.98404 5.28036 3.91505C5.38095 3.85482 5.49493 3.81939 5.61254 3.81179H17.0201C17.1167 3.8127 17.2094 3.84962 17.2793 3.91505ZM11.3244 13.6372L13.4714 6.59974H7.45981L5.32086 13.6372H11.3244ZM28.1684 4.03419C28.2073 4.07853 28.256 4.1137 28.3107 4.13707C28.3654 4.16045 28.4247 4.17144 28.4844 4.16922H29.967C30.0235 4.16976 30.0791 4.15619 30.1288 4.12978C30.1784 4.10338 30.2203 4.06501 30.2506 4.0183C30.2769 3.98182 30.2955 3.94052 30.3053 3.89686C30.315 3.8532 30.3157 3.80807 30.3073 3.76414L30.0156 1.66721C29.9879 1.57016 29.938 1.48054 29.8698 1.40509C29.8309 1.36075 29.7823 1.32558 29.7275 1.30221C29.6728 1.27883 29.6134 1.26785 29.5538 1.27006H28.0712C28.0147 1.26953 27.959 1.2831 27.9094 1.30951C27.8598 1.33591 27.8179 1.37428 27.7876 1.42098C27.7309 1.53218 27.7066 1.60367 27.7309 1.66721L28.0307 3.76414C28.046 3.86624 28.0943 3.96085 28.1684 4.03419ZM32.8756 1.65132C32.8478 1.55427 32.798 1.46465 32.7298 1.38921C32.6925 1.34503 32.6453 1.30987 32.5919 1.28645C32.5385 1.26304 32.4804 1.25199 32.4219 1.25418H30.9311C30.8756 1.25263 30.8207 1.26584 30.7722 1.2924C30.7237 1.31897 30.6835 1.35791 30.6557 1.40509C30.6018 1.47556 30.5785 1.56407 30.5909 1.65132L30.8906 3.74825C30.9094 3.84927 30.9572 3.94295 31.0284 4.0183C31.068 4.06178 31.1168 4.09635 31.1713 4.11966C31.2259 4.14296 31.2848 4.15445 31.3443 4.15333H32.8351C32.8905 4.15405 32.9451 4.14049 32.9934 4.114C33.0418 4.08751 33.0822 4.04904 33.1106 4.00242C33.1388 3.96689 33.1585 3.9256 33.1683 3.88162C33.1781 3.83765 33.1778 3.79208 33.1673 3.74825L32.8756 1.65132ZM26.864 4.82848L26.7181 3.7959H19.5317C19.4189 3.802 19.3097 3.83766 19.2157 3.89916C19.156 3.93106 19.1041 3.97528 19.0635 4.02876C19.023 4.08224 18.9948 4.14371 18.9808 4.20894L18.3812 6.17876C18.3573 6.22799 18.3491 6.28322 18.3578 6.3371C18.3665 6.39097 18.3916 6.44099 18.4298 6.48061C18.4981 6.54357 18.5873 6.58027 18.681 6.58387H27.4149L25.2679 13.6213H16.5583C16.446 13.6238 16.3366 13.6568 16.2423 13.7166C16.1277 13.7879 16.0441 13.8982 16.0074 14.0263L15.3997 15.9962C15.3799 16.0467 15.3747 16.1017 15.3847 16.1549C15.3947 16.2082 15.4195 16.2577 15.4564 16.298C15.5226 16.3652 15.6125 16.405 15.7076 16.4092H27.1475C27.2658 16.3992 27.3799 16.3611 27.4797 16.298C27.5993 16.2321 27.6891 16.1243 27.7309 15.9962L31.0203 5.22563H27.3177C27.2589 5.22676 27.2006 5.21607 27.1463 5.19421C27.0919 5.17235 27.0427 5.13978 27.0017 5.09853C26.9347 5.02651 26.8874 4.93909 26.864 4.84437V4.82848Z" fill="white"/>
</g>
<defs>
<clipPath id="clip0_211_2081">
<rect width="38.2838" height="20.8821" fill="white" transform="translate(0.606506 0.523193)"/>
</clipPath>
</defs>
</svg>
