<svg width="124" height="23" viewBox="0 0 124 23" fill="none" xmlns="http://www.w3.org/2000/svg">
<g clip-path="url(#clip0_319_738)">
<path opacity="0.1" fill-rule="evenodd" clip-rule="evenodd" d="M0.851456 11.7743C0.851456 5.62346 5.83771 0.637207 11.9886 0.637207C18.1394 0.637207 23.1257 5.62346 23.1257 11.7743C23.1257 17.9252 18.1394 22.9114 11.9886 22.9114C5.83771 22.9114 0.851456 17.9252 0.851456 11.7743Z" fill="white"/>
<path fill-rule="evenodd" clip-rule="evenodd" d="M11.9891 5.83453C10.376 5.83453 10.1735 5.84159 9.53993 5.87042C8.90759 5.89938 8.47596 5.99949 8.09828 6.14638C7.70761 6.29809 7.37622 6.50103 7.04606 6.83132C6.71565 7.16147 6.51271 7.49287 6.3605 7.88341C6.21324 8.26121 6.11301 8.69296 6.08455 9.32506C6.05621 9.95865 6.04878 10.1612 6.04878 11.7744C6.04878 13.3876 6.05596 13.5894 6.08467 14.223C6.11375 14.8553 6.21386 15.2869 6.36062 15.6646C6.51246 16.0553 6.71541 16.3867 7.04569 16.7168C7.37572 17.0472 7.70712 17.2507 8.09754 17.4024C8.47546 17.5493 8.90721 17.6494 9.53944 17.6784C10.173 17.7072 10.3753 17.7142 11.9884 17.7142C13.6017 17.7142 13.8035 17.7072 14.4371 17.6784C15.0694 17.6494 15.5016 17.5493 15.8795 17.4024C16.27 17.2507 16.6009 17.0472 16.931 16.7168C17.2614 16.3867 17.4643 16.0553 17.6165 15.6647C17.7625 15.2869 17.8628 14.8552 17.8925 14.2231C17.9209 13.5895 17.9284 13.3876 17.9284 11.7744C17.9284 10.1612 17.9209 9.95877 17.8925 9.32519C17.8628 8.69284 17.7625 8.26121 17.6165 7.88354C17.4643 7.49287 17.2614 7.16147 16.931 6.83132C16.6006 6.50091 16.2702 6.29797 15.8791 6.14638C15.5005 5.99949 15.0686 5.89938 14.4362 5.87042C13.8026 5.84159 13.6009 5.83453 11.9873 5.83453H11.9891ZM11.4563 6.90493C11.6144 6.90468 11.7909 6.90493 11.9891 6.90493C13.575 6.90493 13.763 6.91062 14.3893 6.93908C14.9684 6.96556 15.2828 7.06233 15.4921 7.14364C15.7693 7.2513 15.967 7.37999 16.1747 7.58789C16.3826 7.79578 16.5113 7.99378 16.6192 8.27097C16.7005 8.4801 16.7974 8.79442 16.8238 9.37356C16.8522 9.99972 16.8584 10.1878 16.8584 11.773C16.8584 13.3582 16.8522 13.5463 16.8238 14.1725C16.7973 14.7516 16.7005 15.0659 16.6192 15.2751C16.5116 15.5522 16.3826 15.7496 16.1747 15.9574C15.9668 16.1653 15.7695 16.294 15.4921 16.4016C15.283 16.4833 14.9684 16.5798 14.3893 16.6063C13.7631 16.6348 13.575 16.641 11.9891 16.641C10.403 16.641 10.2151 16.6348 9.58891 16.6063C9.00977 16.5796 8.69546 16.4828 8.48595 16.4015C8.20876 16.2939 8.01077 16.1652 7.80287 15.9573C7.59498 15.7494 7.46628 15.5519 7.35837 15.2746C7.27707 15.0654 7.18018 14.7511 7.15382 14.172C7.12536 13.5458 7.11966 13.3577 7.11966 11.7715C7.11966 10.1853 7.12536 9.99823 7.15382 9.37207C7.1803 8.79294 7.27707 8.47862 7.35837 8.26924C7.46603 7.99205 7.59498 7.79405 7.80287 7.58616C8.01077 7.37826 8.20876 7.24956 8.48595 7.14166C8.69533 7.05998 9.00977 6.96346 9.58891 6.93685C10.1369 6.91211 10.3492 6.90468 11.4563 6.90344V6.90493ZM15.1598 7.89119C14.7662 7.89119 14.447 8.21009 14.447 8.60373C14.447 8.99724 14.7662 9.31651 15.1598 9.31651C15.5533 9.31651 15.8725 8.99724 15.8725 8.60373C15.8725 8.21021 15.5533 7.89119 15.1598 7.89119ZM11.9891 8.72401C10.3046 8.72401 8.93878 10.0898 8.93878 11.7744C8.93878 13.4589 10.3046 14.8241 11.9891 14.8241C13.6737 14.8241 15.039 13.4589 15.039 11.7744C15.039 10.0898 13.6737 8.72401 11.9891 8.72401ZM11.9891 9.79442C13.0825 9.79442 13.9691 10.6808 13.9691 11.7744C13.9691 12.8678 13.0825 13.7543 11.9891 13.7543C10.8956 13.7543 10.0092 12.8678 10.0092 11.7744C10.0092 10.6808 10.8956 9.79442 11.9891 9.79442Z" fill="white"/>
<path opacity="0.1" fill-rule="evenodd" clip-rule="evenodd" d="M34.2628 11.7743C34.2628 5.62346 39.2491 0.637207 45.3999 0.637207C51.5508 0.637207 56.537 5.62346 56.537 11.7743C56.537 17.9252 51.5508 22.9114 45.3999 22.9114C39.2491 22.9114 34.2628 17.9252 34.2628 11.7743Z" fill="white"/>
<path fill-rule="evenodd" clip-rule="evenodd" d="M51.3397 11.7661C51.3397 12.1678 51.2988 12.5689 51.2185 12.9599C51.1402 13.3417 51.0242 13.7164 50.8722 14.0747C50.7237 14.4266 50.5395 14.7658 50.3243 15.082C50.1123 15.3963 49.8681 15.6911 49.5998 15.9599C49.3309 16.2275 49.035 16.471 48.7209 16.6839C48.4036 16.8977 48.064 17.0816 47.7119 17.2308C47.3531 17.3819 46.9775 17.4978 46.5961 17.576C46.2045 17.6565 45.8019 17.6976 45.3997 17.6976C44.9971 17.6976 44.5945 17.6565 44.2035 17.576C43.8215 17.4978 43.4459 17.3819 43.0874 17.2308C42.7353 17.0816 42.3954 16.8977 42.0781 16.6839C41.764 16.4711 41.4681 16.2275 41.1998 15.9599C40.9313 15.6911 40.687 15.3963 40.4747 15.082C40.2607 14.7658 40.0762 14.4266 39.9271 14.0747C39.7751 13.7164 39.6588 13.3417 39.5802 12.9599C39.5007 12.5689 39.4601 12.1678 39.4601 11.7661C39.4601 11.3641 39.5007 10.9621 39.5802 10.5719C39.6588 10.1902 39.7751 9.81486 39.9271 9.45718C40.0762 9.105 40.2607 8.76557 40.4747 8.44928C40.687 8.13476 40.9313 7.84048 41.1998 7.57142C41.4681 7.30379 41.764 7.06082 42.0781 6.84823C42.3954 6.63361 42.7353 6.44972 43.0875 6.30026C43.446 6.14875 43.8215 6.03263 44.2035 5.95502C44.5945 5.87509 44.9971 5.83453 45.3997 5.83453C45.802 5.83453 46.2045 5.87509 46.5961 5.95502C46.9775 6.03265 47.3531 6.14878 47.7119 6.30026C48.064 6.4497 48.4037 6.63361 48.721 6.84823C49.0351 7.06082 49.3309 7.30379 49.5998 7.57142C49.8681 7.84048 50.1123 8.13476 50.3243 8.44928C50.5395 8.76557 50.7237 9.10503 50.8722 9.45718C51.0242 9.81486 51.1402 10.1902 51.2185 10.5719C51.2988 10.9621 51.3397 11.3641 51.3397 11.7661ZM43.2353 7.18448C41.8208 7.8515 40.765 9.15307 40.4358 10.7217C40.5695 10.7229 42.6834 10.7495 45.1189 10.1033C44.2409 8.54571 43.3029 7.27458 43.2353 7.18448ZM45.5391 10.8833C42.9273 11.6641 40.421 11.6079 40.3311 11.6045C40.3296 11.6589 40.327 11.7116 40.327 11.7661C40.327 13.0674 40.8187 14.2537 41.6267 15.1507C41.625 15.148 43.0132 12.6888 45.7506 11.8049C45.8167 11.7829 45.884 11.7632 45.9507 11.7441C45.8234 11.4562 45.6844 11.1677 45.5391 10.8833ZM48.7496 7.96445C47.8566 7.1781 46.684 6.70111 45.3996 6.70111C44.9875 6.70111 44.5875 6.75093 44.2044 6.84303C44.2803 6.94499 45.2332 8.20717 46.1007 9.79777C48.0147 9.08125 48.7372 7.98298 48.7496 7.96445ZM46.2965 12.5834C46.2852 12.5871 46.2739 12.5904 46.2628 12.5944C43.2699 13.6363 42.2925 15.7359 42.282 15.7589C43.1431 16.4276 44.2233 16.8311 45.3997 16.8311C46.1021 16.8311 46.7713 16.6882 47.3801 16.4296C47.3049 15.9871 47.0103 14.4359 46.2965 12.5834ZM48.2342 15.9668C49.3732 15.1993 50.1822 13.9806 50.4078 12.5689C50.3034 12.5353 48.8842 12.0867 47.2469 12.3488C47.9123 14.1746 48.1826 15.6616 48.2342 15.9668ZM46.4911 10.5525C46.6088 10.7941 46.7229 11.04 46.8281 11.287C46.8656 11.3757 46.9021 11.4626 46.9378 11.5494C48.6803 11.3305 50.3971 11.6989 50.4705 11.7139C50.4589 10.5132 50.0288 9.41112 49.317 8.54834C49.3074 8.56192 48.4939 9.73578 46.4911 10.5525Z" fill="white"/>
<path opacity="0.1" fill-rule="evenodd" clip-rule="evenodd" d="M67.6741 11.7743C67.6741 5.62346 72.6604 0.637207 78.8112 0.637207C84.9621 0.637207 89.9484 5.62346 89.9484 11.7743C89.9484 17.9252 84.9621 22.9114 78.8112 22.9114C72.6604 22.9114 67.6741 17.9252 67.6741 11.7743Z" fill="white"/>
<path fill-rule="evenodd" clip-rule="evenodd" d="M78.4777 9.68957L78.5011 10.0749L78.1116 10.0278C76.6937 9.84687 75.4551 9.23342 74.4034 8.20315L73.8893 7.69195L73.7568 8.06945C73.4764 8.91097 73.6556 9.79968 74.2398 10.3974C74.5514 10.7277 74.4813 10.7749 73.9438 10.5783C73.7568 10.5154 73.5932 10.4682 73.5777 10.4918C73.5231 10.5468 73.7101 11.2625 73.8581 11.5456C74.0607 11.9389 74.4735 12.3242 74.9254 12.5523L75.3071 12.7332L74.8553 12.7411C74.419 12.7411 74.4034 12.7489 74.4502 12.9141C74.606 13.4253 75.2214 13.968 75.9069 14.2039L76.3899 14.3691L75.9693 14.6207C75.346 14.9825 74.6138 15.187 73.8815 15.2027C73.5309 15.2106 73.2427 15.242 73.2427 15.2656C73.2427 15.3443 74.1931 15.7847 74.7462 15.9577C76.4055 16.4689 78.3764 16.2487 79.8566 15.3757C80.9082 14.7544 81.9599 13.5197 82.4507 12.3242C82.7155 11.6872 82.9804 10.5232 82.9804 9.96484C82.9804 9.60306 83.0038 9.55588 83.44 9.12332C83.6971 8.87165 83.9386 8.59638 83.9853 8.51774C84.0632 8.36831 84.0555 8.36831 83.6582 8.50201C82.996 8.73795 82.9025 8.70649 83.2297 8.35258C83.4712 8.10091 83.7594 7.64476 83.7594 7.51106C83.7594 7.48747 83.6426 7.52679 83.5101 7.59757C83.3699 7.67622 83.0583 7.79419 82.8246 7.86497L82.4039 7.99867L82.0222 7.73913C81.8119 7.59757 81.5159 7.44028 81.3601 7.39309C80.9628 7.28298 80.3551 7.29871 79.9968 7.42455C79.023 7.77846 78.4076 8.69076 78.4777 9.68957Z" fill="white"/>
<path opacity="0.1" fill-rule="evenodd" clip-rule="evenodd" d="M101.085 11.7743C101.085 5.62346 106.072 0.637207 112.223 0.637207C118.373 0.637207 123.36 5.62346 123.36 11.7743C123.36 17.9252 118.373 22.9114 112.223 22.9114C106.072 22.9114 101.085 17.9252 101.085 11.7743Z" fill="white"/>
<path fill-rule="evenodd" clip-rule="evenodd" d="M116.864 7.94565C117.375 8.08591 117.778 8.4992 117.914 9.02404C118.162 9.97525 118.162 11.96 118.162 11.96C118.162 11.96 118.162 13.9446 117.914 14.8959C117.778 15.4207 117.375 15.834 116.864 15.9743C115.937 16.2292 112.223 16.2292 112.223 16.2292C112.223 16.2292 108.508 16.2292 107.581 15.9743C107.07 15.834 106.668 15.4207 106.531 14.8959C106.283 13.9446 106.283 11.96 106.283 11.96C106.283 11.96 106.283 9.97525 106.531 9.02404C106.668 8.4992 107.07 8.08591 107.581 7.94565C108.508 7.69073 112.223 7.69073 112.223 7.69073C112.223 7.69073 115.937 7.69073 116.864 7.94565ZM111.109 10.2894V14.0017L114.079 12.1456L111.109 10.2894Z" fill="white"/>
</g>
<defs>
<clipPath id="clip0_319_738">
<rect width="122.508" height="22.2742" fill="white" transform="translate(0.851456 0.637207)"/>
</clipPath>
</defs>
</svg>
